<svg width="376" height="376" viewBox="0 0 376 376" fill="none" xmlns="http://www.w3.org/2000/svg">
<path fill-rule="evenodd" clip-rule="evenodd" d="M91.3202 74.3496C102.646 31.5493 141.639 0 188 0H200L200 39.2741C238.273 17.0181 288.154 22.2814 320.936 55.0639L328.904 63.0315L303.514 91.8344C345.367 103.787 376 142.313 376 188V200L336.726 200C358.982 238.273 353.719 288.154 320.936 320.936L312.451 329.421L284.68 301.65C273.354 344.451 234.361 376 188 376H176L176 336.726C137.727 358.982 87.8464 353.719 55.0639 320.936L46.5786 312.451L74.3496 284.68C31.5493 273.354 0 234.361 0 188V176L39.2741 176C17.0181 137.727 22.2814 87.8464 55.0639 55.0639L63.5492 46.5786L91.3202 74.3496ZM88.1277 105.098L64.2153 81.1859C42.6355 110.902 45.2419 152.722 72.0345 179.515C95.0033 202.484 129.016 207.677 156.98 195.095C118.478 182.545 90.2451 147.263 88.1277 105.098ZM195.095 219.02C182.544 257.522 147.263 285.755 105.098 287.872L81.1859 311.785C110.902 333.364 152.722 330.758 179.515 303.965C202.484 280.997 207.677 246.984 195.095 219.02ZM219.02 180.905C257.522 193.455 285.755 228.737 287.872 270.902L311.785 294.814C333.364 265.098 330.758 223.278 303.965 196.485C280.997 173.516 246.984 168.323 219.02 180.905ZM279.664 112.087C65.5372 101.948 508.876 122.939 279.664 112.087V112.087ZM180.905 156.98C193.85 117.269 230.977 88.481 274.896 88.0059L295.453 64.6846C265.7 42.5992 223.471 45.0492 196.485 72.0345C173.516 95.0033 168.323 129.016 180.905 156.98Z" fill="#89A496"/>
</svg>
